<?xml version="1.0" encoding="utf-8"?>
<!-- Generator: Adobe Illustrator 19.0.0, SVG Export Plug-In . SVG Version: 6.00 Build 0)  -->
<svg version="1.1" id="Layer_1" xmlns="http://www.w3.org/2000/svg" xmlns:xlink="http://www.w3.org/1999/xlink" x="0px" y="0px"
	 viewBox="-49 141 512 512" style="enable-background:new -49 141 512 512;" xml:space="preserve">
<style type="text/css">
	.st0{fill:#FFFFFF;}
</style>
<g>
	<path class="st0" d="M86.1,345.6c-10.7,0-19.3,8.7-19.3,19.4c0,10.7,8.7,19.4,19.3,19.4c10.6,0,19.3-8.7,19.3-19.4
		C105.4,354.3,96.8,345.6,86.1,345.6z"/>
	<path class="st0" d="M417.3,389.9c-21.2-88.5-43.6-135.5-88.5-148.8c-9.8-2.9-18.1-4-25.7-4c-27.6,0-46.9,14.7-96.1,14.7
		c-49.2,0-68.5-14.7-96.1-14.7c-7.7,0-16,1.1-25.7,4c-44.9,13.3-67.3,60.4-88.5,148.8c-21.2,88.5-17.3,152.4,7.7,164.3
		c4.1,1.9,8.2,2.8,12.5,2.8c21.7,0,45.1-23.8,67.7-52c25.7-32.1,32.1-33,110.3-33h24.3c78.1,0,84.6,0.8,110.3,33
		c22.5,28.2,46,52,67.7,52c4.2,0,8.4-0.9,12.5-2.8C434.6,542.2,438.4,478.3,417.3,389.9z M86.2,404.6C64.6,404.6,47,386.9,47,365
		c0-21.8,17.6-39.6,39.2-39.6c21.7,0,39.2,17.8,39.2,39.6C125.5,386.9,107.9,404.6,86.2,404.6z M259.1,385.1
		c-11.1,0-20.1-9-20.1-20.1c0-11.1,9-20.1,20.1-20.1c11.1,0,20.1,9,20.1,20.1C279.2,376.1,270.2,385.1,259.1,385.1z M303,429
		c-11.1,0-20.1-9-20.1-20c0-11.2,9-20.1,20.1-20.1c11.1,0,20.1,8.9,20.1,20.1C323.1,420,314.1,429,303,429z M303,341.2
		c-11.1,0-20.1-9-20.1-20.1c0-11.1,9-20.1,20.1-20.1c11.1,0,20.1,9,20.1,20.1C323.1,332.2,314.1,341.2,303,341.2z M346.9,385.1
		c-11.1,0-20.1-9-20.1-20.1c0-11.1,9-20.1,20.1-20.1c11.1,0,20.1,9,20.1,20.1C367,376.1,358,385.1,346.9,385.1z"/>
</g>
</svg>
