<?xml version="1.0" encoding="utf-8"?>
<!-- Generator: Adobe Illustrator 19.0.0, SVG Export Plug-In . SVG Version: 6.00 Build 0)  -->
<svg version="1.1" id="Layer_1" xmlns="http://www.w3.org/2000/svg" xmlns:xlink="http://www.w3.org/1999/xlink" x="0px" y="0px"
	 viewBox="-49 141 512 512" style="enable-background:new -49 141 512 512;" xml:space="preserve">
<style type="text/css">
	.st0{fill:#FFFFFF;}
</style>
<path class="st0" d="M327.4,299.3l71.6-71.7L376.4,205l-77.6,77.6C271,268.7,240.5,260,207,260c-81.9,0-145.7,52.2-224,137
	c34.8,37.4,66.8,72.7,103.3,98.1L15,566.4L37.6,589l76.9-76.9c27,13.7,57,21.9,92.5,21.9c99.9,0,173.4-81.8,224-135.5
	C403,364.4,368.6,326.7,327.4,299.3z M117.4,397c0-50.4,40.2-91.3,89.6-91.3c19.3,0,37.2,6.2,51.8,16.9l-50.7,50.7
	c-0.7-2.6-1.1-5.4-1.1-8.3c0-7.9,2.9-15.1,7.6-20.7c-2.5-0.4-5-0.6-7.6-0.6c-28.8,0-52.3,23.9-52.3,53.3c0,8.6,2,16.8,5.6,24
	L133,448.4C123.2,433.7,117.4,416,117.4,397z M207,488.3c-19.3,0-37.2-6.2-51.8-16.9l27.4-27.4c7.3,4,15.6,6.2,24.4,6.2
	c28.8,0,52.3-23.9,52.3-53.3c0-2.3-0.2-4.6-0.4-6.9c-5.5,4.3-12.3,6.9-19.8,6.9c-2.9,0-5.6-0.4-8.3-1.1l50.3-50.3
	c9.8,14.6,15.6,32.3,15.6,51.4C296.6,447.4,256.4,488.3,207,488.3z"/>
</svg>
