<?xml version="1.0" encoding="utf-8"?>
<!-- Generator: Adobe Illustrator 19.0.0, SVG Export Plug-In . SVG Version: 6.00 Build 0)  -->
<svg version="1.1" id="Layer_1" xmlns="http://www.w3.org/2000/svg" xmlns:xlink="http://www.w3.org/1999/xlink" x="0px" y="0px"
	 viewBox="-49 141 512 512" style="enable-background:new -49 141 512 512;" xml:space="preserve">
<style type="text/css">
	.st0{fill:#FFFFFF;}
</style>
<g>
	<path class="st0" d="M207,269c-81.9,0-145.7,48.8-224,128c67.4,67.7,124,128,224,128c99.9,0,173.4-76.4,224-126.6
		C379.2,339.6,305.8,269,207,269z M207,488.3c-49.4,0-89.6-41-89.6-91.3c0-50.4,40.2-91.3,89.6-91.3s89.6,41,89.6,91.3
		C296.6,447.4,256.4,488.3,207,488.3z"/>
	<g>
		<path class="st0" d="M207,365c0-7.9,2.9-15.1,7.6-20.7c-2.5-0.4-5-0.6-7.6-0.6c-28.8,0-52.3,23.9-52.3,53.3
			c0,29.4,23.5,53.3,52.3,53.3s52.3-23.9,52.3-53.3c0-2.3-0.2-4.6-0.4-6.9c-5.5,4.3-12.3,6.9-19.8,6.9C221.3,397,207,382.7,207,365z
			"/>
	</g>
</g>
</svg>
