<?xml version="1.0" encoding="utf-8"?>
<!-- Generator: Adobe Illustrator 19.0.0, SVG Export Plug-In . SVG Version: 6.00 Build 0)  -->
<svg version="1.1" id="Layer_1" xmlns="http://www.w3.org/2000/svg" xmlns:xlink="http://www.w3.org/1999/xlink" x="0px" y="0px"
	 viewBox="-49 141 512 512" style="enable-background:new -49 141 512 512;" xml:space="preserve">
<style type="text/css">
	.st0{fill:#FFFFFF;}
</style>
<g>
	<g>
		<path class="st0" d="M207,189c-75,0-144.5,40.7-181.4,106.1l-2,3.5l20.9,11.8l2-3.5C79.1,249,140.6,213,207,213
			c101.5,0,184,82.5,184,184c0,12.5-1.3,25-3.7,37.1l-0.8,3.9l23.5,4.8l0.8-3.9c2.8-13.7,4.2-27.8,4.2-42
			C415,282.3,321.7,189,207,189z"/>
		<path class="st0" d="M367.5,487.1C334.9,545,273.4,581,207,581c-101.5,0-184-82.5-184-184c0-12.5,1.3-25,3.8-37.1l0.8-3.9L4,351.1
			L3.2,355C0.4,368.8-1,382.9-1,397c0,114.7,93.3,208,208,208c75,0,144.5-40.7,181.4-106.1l2-3.5l-20.9-11.8L367.5,487.1z"/>
	</g>
	<polygon class="st0" points="335,397 399,461 463,397 	"/>
	<polygon class="st0" points="-49,397 15,333 79,397 	"/>
</g>
</svg>
