<?xml version="1.0" encoding="utf-8"?>
<!-- Generator: Adobe Illustrator 19.0.0, SVG Export Plug-In . SVG Version: 6.00 Build 0)  -->
<svg version="1.1" id="Layer_1" xmlns="http://www.w3.org/2000/svg" xmlns:xlink="http://www.w3.org/1999/xlink" x="0px" y="0px"
	 viewBox="-49 141 512 512" style="enable-background:new -49 141 512 512;" xml:space="preserve">
<style type="text/css">
	.st0{fill:#FFFFFF;}
</style>
<path class="st0" d="M207,173C83.3,173-17,273.3-17,397S83.3,621,207,621s224-100.3,224-224S330.7,173,207,173z M385.3,325.5
	l-61.5,18.9c-6.3-14-15.1-26.8-26.3-38c-11.2-11.2-24-20-38-26.3l18.9-61.5c23.8,9.5,45.6,23.9,64.3,42.5
	C361.4,279.9,375.8,301.7,385.3,325.5z M207,493c-53,0-96-43-96-96s43-96,96-96s96,43,96,96S260,493,207,493z M71.2,261.2
	c18.7-18.7,40.5-33,64.3-42.5l18.9,61.5c-14,6.3-26.8,15.1-38,26.3s-20,24-26.3,38l-61.5-18.9C38.2,301.7,52.6,279.9,71.2,261.2z
	 M28.7,468.5l61.5-18.9c6.3,14,15.1,26.8,26.3,38s24,20,38,26.3l-18.9,61.5c-23.8-9.5-45.6-23.9-64.3-42.5
	C52.6,514.1,38.2,492.3,28.7,468.5z M342.8,532.8c-18.7,18.7-40.5,33-64.3,42.5l-18.9-61.5c14-6.3,26.8-15.1,38-26.3s20-24,26.3-38
	l61.5,18.9C375.8,492.3,361.4,514.1,342.8,532.8z"/>
</svg>
