<?xml version="1.0" encoding="utf-8"?>
<!-- Generator: Adobe Illustrator 19.0.0, SVG Export Plug-In . SVG Version: 6.00 Build 0)  -->
<svg version="1.1" id="Layer_1" xmlns="http://www.w3.org/2000/svg" xmlns:xlink="http://www.w3.org/1999/xlink" x="0px" y="0px"
	 viewBox="-49 141 512 512" style="enable-background:new -49 141 512 512;" xml:space="preserve">
<style type="text/css">
	.st0{fill:#FFFFFF;}
</style>
<g>
	<g>
		<path class="st0" d="M259.1,344.9c-11.1,0-20.1,9-20.1,20.1c0,11.1,9,20.1,20.1,20.1c11.1,0,20.1-9,20.1-20.1
			C279.2,353.9,270.2,344.9,259.1,344.9z"/>
		<path class="st0" d="M303,388.9c-11.1,0-20.1,8.9-20.1,20.1c0,11.1,9,20,20.1,20c11.1,0,20.1-9,20.1-20
			C323.1,397.8,314.1,388.9,303,388.9z"/>
		<path class="st0" d="M86.2,325.4C64.6,325.4,47,343.2,47,365c0,21.9,17.6,39.6,39.2,39.6c21.7,0,39.2-17.8,39.2-39.6
			C125.5,343.2,107.9,325.4,86.2,325.4z M86.1,384.5c-10.7,0-19.3-8.7-19.3-19.4c0-10.7,8.7-19.4,19.3-19.4
			c10.6,0,19.3,8.7,19.3,19.4C105.4,375.7,96.8,384.5,86.1,384.5z"/>
		<path class="st0" d="M303,301c-11.1,0-20.1,9-20.1,20.1c0,11.1,9,20.1,20.1,20.1c11.1,0,20.1-9,20.1-20.1
			C323.1,310,314.1,301,303,301z"/>
		<path class="st0" d="M346.9,344.9c-11.1,0-20.1,9-20.1,20.1c0,11.1,9,20.1,20.1,20.1c11.1,0,20.1-9,20.1-20.1
			C367,353.9,358,344.9,346.9,344.9z"/>
	</g>
	<path class="st0" d="M417.3,389.9c-21.2-88.5-43.6-135.5-88.5-148.8c-9.8-2.9-18.1-4-25.7-4c-27.6,0-46.9,14.7-96.1,14.7
		c-49.2,0-68.5-14.7-96.1-14.7c-7.7,0-16,1.1-25.7,4c-44.9,13.3-67.3,60.4-88.5,148.8c-21.2,88.5-17.3,152.4,7.7,164.3
		c4.1,1.9,8.2,2.8,12.5,2.8c21.7,0,45.1-23.8,67.7-52c25.7-32.1,32.1-33,110.3-33h24.3c78.1,0,84.6,0.8,110.3,33
		c22.5,28.2,46,52,67.7,52c4.2,0,8.4-0.9,12.5-2.8C434.6,542.2,438.4,478.3,417.3,389.9z M402.7,539.7c-1.8,0.9-3.6,1.3-5.6,1.3
		c-6,0-14.1-4-23.3-11.7c-9.2-7.6-19.3-18.5-31.9-34.2c-13-16.2-23.7-28.2-43.5-33.9c-16.6-4.8-38.6-5.1-79.3-5.1h-24.3
		c-40.6,0-62.6,0.3-79.3,5.1C95.7,466.8,85,478.8,72,495c-12.6,15.7-22.7,26.6-31.9,34.3C31,536.9,22.9,541,16.9,541
		c-1.9,0-3.8-0.4-5.6-1.3c-9.6-4.6-22.6-47.7,1-146.1C33.7,304,54.7,266.8,89.8,256.4c7.6-2.3,14.6-3.4,21.2-3.4
		c9.7,0,18.6,2.3,29.8,5.2c16.1,4.2,36.1,9.4,66.3,9.4c30.1,0,50.1-5.2,66.2-9.4c11.2-2.9,20.1-5.3,29.9-5.3
		c6.6,0,13.6,1.1,21.2,3.4c35,10.4,56,47.6,77.5,137.2C425.2,492,412.2,535.2,402.7,539.7z"/>
</g>
</svg>
