<?xml version="1.0" encoding="utf-8"?>
<!-- Generator: Adobe Illustrator 19.0.0, SVG Export Plug-In . SVG Version: 6.00 Build 0)  -->
<svg version="1.1" id="Layer_1" xmlns="http://www.w3.org/2000/svg" xmlns:xlink="http://www.w3.org/1999/xlink" x="0px" y="0px"
	 viewBox="-49 141 512 512" style="enable-background:new -49 141 512 512;" xml:space="preserve">
<style type="text/css">
	.st0{fill:#FFFFFF;}
</style>
<path class="st0" d="M7,229v336h400V229H7z M79,549H23v-48h56V549z M79,485H23v-48h56V485z M79,421H23v-48h56V421z M79,357H23v-48
	h56V357z M79,293H23v-48h56V293z M319,549H95V405h224V549z M319,389H95V245h224V389z M391,549h-56v-48h56V549z M391,485h-56v-48h56
	V485z M391,421h-56v-48h56V421z M391,357h-56v-48h56V357z M391,293h-56v-48h56V293z"/>
</svg>
