<?xml version="1.0" encoding="utf-8"?>
<!-- Generator: Adobe Illustrator 19.0.0, SVG Export Plug-In . SVG Version: 6.00 Build 0)  -->
<svg version="1.1" id="Layer_1" xmlns="http://www.w3.org/2000/svg" xmlns:xlink="http://www.w3.org/1999/xlink" x="0px" y="0px"
	 viewBox="-49 141 512 512" style="enable-background:new -49 141 512 512;" xml:space="preserve">
<style type="text/css">
	.st0{fill:#FFFFFF;}
</style>
<g id="Icon_33_">
	<g>
		<path class="st0" d="M334.8,462.4c-16,0-31,5.3-41.7,16L140,390c1.1-5.3,2.1-9.6,2.1-14.9s-1.1-9.6-2.1-14.9L291,272.8
			c11.8,10.7,26.7,17,43.9,17c35.3,0,64.2-28.8,64.2-63.9c0-35.2-28.9-63.9-64.2-63.9s-64.2,28.8-64.2,63.9c0,5.3,1.1,9.6,2.1,14.9
			L122,328.2c-11.8-10.7-26.7-17-43.9-17C42.8,311.2,15,340,15,375.1c0,35.2,28.9,63.9,64.2,63.9c17.1,0,32.1-6.4,43.9-17L275,510.4
			c-1.1,4.3-2.1,8.5-2.1,13.8c0,34.1,27.8,61.8,62,61.8s62-27.7,62-61.8S369.1,462.4,334.8,462.4z"/>
	</g>
</g>
</svg>
